<svg width="99" height="99" viewBox="0 0 99 99" fill="none" xmlns="http://www.w3.org/2000/svg">
<rect width="99" height="99" rx="49.5" fill="white"/>
<path d="M49.5 27.8438C53.4703 27.8438 56.7188 31.0922 56.7188 35.0625C56.7188 39.0328 53.4703 42.2812 49.5 42.2812C45.5297 42.2812 42.2812 39.0328 42.2812 35.0625C42.2812 31.0922 45.5297 27.8438 49.5 27.8438ZM49.5 63.9375C59.2453 63.9375 70.4344 68.5936 71.1562 71.1562H27.8438C28.6739 68.5575 39.7908 63.9375 49.5 63.9375ZM49.5 20.625C41.5233 20.625 35.0625 27.0858 35.0625 35.0625C35.0625 43.0392 41.5233 49.5 49.5 49.5C57.4767 49.5 63.9375 43.0392 63.9375 35.0625C63.9375 27.0858 57.4767 20.625 49.5 20.625ZM49.5 56.7188C39.863 56.7188 20.625 61.5553 20.625 71.1562V78.375H78.375V71.1562C78.375 61.5553 59.137 56.7188 49.5 56.7188Z" fill="black"/>
</svg>
